<svg width="107" height="24" viewBox="0 0 107 24" fill="none" xmlns="http://www.w3.org/2000/svg">
    <path
        d="M7 14.0029C7 13.3112 7.11826 12.662 7.3548 12.0551C7.59133 11.4525 7.92422 10.9221 8.35348 10.4638C8.78712 10.0055 9.29961 9.6469 9.89093 9.38804C10.4823 9.12918 11.1327 8.99976 11.8423 8.99976C12.5519 8.99976 13.2177 9.12918 13.8397 9.38804C14.4661 9.6469 15.0158 10.0055 15.4888 10.4638C15.9619 10.9221 16.332 11.4525 16.5992 12.0551C16.8664 12.662 17 13.3112 17 14.0029C17 14.6989 16.8642 15.3482 16.5926 15.9507C16.3254 16.5576 15.9553 17.088 15.4823 17.5421C15.0092 18.0004 14.4617 18.3569 13.8397 18.6115C13.2177 18.8703 12.5519 18.9998 11.8423 18.9998C11.4831 18.9998 11.124 18.9552 10.7648 18.8661C10.4056 18.7812 10.0771 18.656 9.77924 18.4905C9.48576 18.325 9.24923 18.1213 9.06964 17.8795C8.89444 17.6418 8.80683 17.3681 8.80683 17.0583C8.80683 16.8122 8.86377 16.5703 8.97766 16.3327C9.09593 16.0993 9.2558 15.9041 9.45729 15.7471C9.65878 15.59 9.88436 15.5009 10.134 15.4797C9.85808 15.3057 9.63688 15.0766 9.47043 14.7922C9.30837 14.5079 9.22733 14.179 9.22733 13.8056C9.22733 13.3431 9.34341 12.9187 9.57556 12.5325C9.81209 12.1506 10.1275 11.8451 10.5217 11.6159C10.9203 11.391 11.3605 11.2786 11.8423 11.2786C12.3241 11.2786 12.7622 11.391 13.1564 11.6159C13.5506 11.8451 13.8638 12.1506 14.0959 12.5325C14.3325 12.9187 14.4507 13.3431 14.4507 13.8056C14.4507 14.1706 14.3697 14.5037 14.2076 14.805C14.0499 15.1063 13.8375 15.3418 13.5703 15.5115L14.3193 15.5115L14.2076 16.2308L10.4625 16.2308C10.2523 16.2308 10.0771 16.3114 9.93692 16.4727C9.79676 16.634 9.72667 16.8143 9.72667 17.0138C9.72667 17.2684 9.83618 17.4763 10.0552 17.6376C10.2786 17.7988 10.5523 17.9176 10.8765 17.994C11.205 18.0704 11.5269 18.1086 11.8423 18.1086C12.4293 18.1086 12.979 18.0004 13.4915 17.784C14.0039 17.5718 14.4529 17.2769 14.8384 16.8992C15.2282 16.5215 15.5326 16.0844 15.7516 15.5879C15.9707 15.0957 16.0802 14.5673 16.0802 14.0029C16.0802 13.4385 15.9707 12.9081 15.7516 12.4116C15.5326 11.9151 15.2282 11.478 14.8384 11.1003C14.4529 10.7226 14.0039 10.4256 13.4915 10.2092C12.979 9.997 12.4293 9.89091 11.8423 9.89091C11.2554 9.89091 10.721 9.997 10.2392 10.2092C9.76172 10.4214 9.34998 10.7163 9.00394 11.094C8.65791 11.4716 8.39071 11.9087 8.20236 12.4052C8.01402 12.9017 7.91984 13.4343 7.91984 14.0029L7 14.0029ZM9.96978 13.8629C9.96978 14.1981 10.064 14.4867 10.2523 14.7286C10.4406 14.9705 10.6837 15.1572 10.9816 15.2887C11.2838 15.4203 11.597 15.4861 11.9212 15.4861C12.2321 15.4861 12.5234 15.4245 12.795 15.3015C13.0666 15.1827 13.2856 15.0023 13.452 14.7604C13.6229 14.5185 13.7083 14.2194 13.7083 13.8629C13.7083 13.5277 13.6251 13.2221 13.4586 12.9463C13.2922 12.6747 13.0666 12.4562 12.7819 12.2907C12.5015 12.1294 12.1883 12.0488 11.8423 12.0488C11.4919 12.0488 11.1743 12.1315 10.8896 12.297C10.6093 12.4625 10.3859 12.6832 10.2194 12.959C10.053 13.2349 9.96978 13.5361 9.96978 13.8629Z"
        fill="#F5F3EF" />
    <path d="M18.505 7.99976H20.6139L21 20.9998H18L18.505 7.99976Z" fill="#F5F3EF" />
    <rect width="22" height="2" transform="translate(1 20.9998)" fill="#F5F3EF" />
    <rect width="22" height="0.916667" transform="translate(0.986816 22.0923)" fill="#F5F3EF" />
    <path d="M22.9528 3.87905L22.0728 4.48829H1.90051L1.02051 3.87905L12 -0.000488281L22.9528 3.87905Z"
        fill="#F5F3EF" />
    <path d="M1.90039 7.0608V5.03003H21.9373V7.0608H1.90039Z" fill="#F5F3EF" />
    <path d="M3.50495 8H5.61386L6 21H3L3.50495 8Z" fill="#F5F3EF" />
    <path
        d="M37.9386 18.8383C37.1569 18.8383 36.4578 18.6879 35.8414 18.3872C35.24 18.0866 34.7665 17.6656 34.4207 17.1244C34.0749 16.5832 33.902 15.9668 33.902 15.2752C33.902 14.2078 34.2704 13.3584 35.007 12.727C35.7437 12.0805 36.8036 11.7047 38.1867 11.5994L42.6067 11.2386V13.381L38.5701 13.7192C37.8484 13.7794 37.3298 13.9297 37.014 14.1702C36.6983 14.4108 36.5405 14.734 36.5405 15.1399C36.5405 15.5458 36.7209 15.8766 37.0817 16.1322C37.4425 16.3877 37.901 16.5155 38.4573 16.5155C39.0436 16.5155 39.5698 16.3727 40.0359 16.0871C40.5169 15.7864 40.9003 15.403 41.186 14.937C41.4716 14.4709 41.6144 13.9673 41.6144 13.4261V11.5543C41.6144 10.8327 41.3739 10.2389 40.8928 9.77283C40.4117 9.29174 39.7803 9.0512 38.9985 9.0512C38.337 9.0512 37.7883 9.21657 37.3523 9.54732C36.9314 9.86303 36.6608 10.2614 36.5405 10.7425H36.2924L34.0824 10.2013C34.353 9.17899 34.9168 8.35212 35.7738 7.7207C36.6457 7.08928 37.7282 6.77357 39.0211 6.77357C40.6297 6.77357 41.885 7.23962 42.7871 8.17172C43.6891 9.08879 44.1401 10.3892 44.1401 12.073V18.5H41.8399V15.185L42.7645 15.3203C42.5841 15.9668 42.2609 16.5606 41.7948 17.1018C41.3288 17.628 40.765 18.049 40.1035 18.3647C39.4571 18.6804 38.7354 18.8383 37.9386 18.8383ZM46.4343 18.5V7.11183H48.8698V10.0209L48.2158 9.97578C48.5315 9.08879 49.0577 8.38971 49.7944 7.87856C50.531 7.36741 51.3729 7.11183 52.3201 7.11183H53.4251V9.43457H51.9367C51.3504 9.43457 50.8392 9.56987 50.4033 9.84048C49.9673 10.0961 49.629 10.4644 49.3885 10.9455C49.1479 11.4266 49.0277 11.9978 49.0277 12.6593V18.5H46.4343ZM59.4095 18.8383C58.2368 18.8383 57.207 18.5827 56.32 18.0715C55.433 17.5604 54.7415 16.8538 54.2454 15.9518C53.7492 15.0497 53.5012 13.9974 53.5012 12.7946C53.5012 11.607 53.7492 10.5621 54.2454 9.66007C54.7415 8.74301 55.433 8.03641 56.32 7.54029C57.207 7.02914 58.2368 6.77357 59.4095 6.77357C60.3115 6.77357 61.1158 6.92391 61.8224 7.22458C62.5441 7.52526 63.1529 7.96876 63.649 8.55508C64.1452 9.1414 64.521 9.86303 64.7766 10.72L62.6117 11.3288H62.3411C62.1306 10.6523 61.7548 10.1186 61.2136 9.72773C60.6723 9.32181 60.071 9.11885 59.4095 9.11885C58.733 9.11885 58.1466 9.26919 57.6505 9.56987C57.1544 9.87055 56.771 10.299 56.5004 10.8553C56.2298 11.3965 56.0945 12.0429 56.0945 12.7946C56.0945 13.5313 56.2298 14.1778 56.5004 14.734C56.771 15.2903 57.1544 15.7262 57.6505 16.042C58.1466 16.3426 58.733 16.493 59.4095 16.493C59.8906 16.493 60.3266 16.4028 60.7174 16.2224C61.1234 16.042 61.4767 15.7864 61.7773 15.4556C62.078 15.1249 62.3035 14.7265 62.4539 14.2604H62.7245L64.8893 14.8693C64.6187 15.7413 64.2279 16.4779 63.7167 17.0793C63.2055 17.6656 62.5892 18.1091 61.8675 18.4098C61.1609 18.6954 60.3416 18.8383 59.4095 18.8383ZM66.6983 18.5V2.2634L69.224 1.94769L69.2917 2.1281V10.0209L68.4799 9.97578C68.7204 9.31429 69.0662 8.75052 69.5172 8.28447C69.9682 7.80339 70.4944 7.43506 71.0958 7.17948C71.6971 6.90887 72.3511 6.77357 73.0577 6.77357C73.8695 6.77357 74.5987 6.95397 75.2451 7.31479C75.9066 7.66057 76.4253 8.17924 76.8011 8.87079C77.192 9.54732 77.3874 10.3967 77.3874 11.419V18.5H74.7941V12.2083C74.7941 11.4867 74.6964 10.9004 74.5009 10.4494C74.3055 9.99834 74.0198 9.66759 73.644 9.45712C73.2832 9.24664 72.8622 9.1414 72.3812 9.1414C71.9301 9.1414 71.4641 9.25416 70.983 9.47967C70.517 9.70517 70.1186 10.081 69.7878 10.6072C69.4571 11.1334 69.2917 11.8475 69.2917 12.7495V18.5H66.6983ZM79.6783 18.5V7.11183H82.2716V18.5H79.6783ZM80.9862 5.39797C80.5352 5.39797 80.1519 5.24011 79.8361 4.9244C79.5204 4.60869 79.3626 4.21781 79.3626 3.75175C79.3626 3.31577 79.5204 2.93992 79.8361 2.62421C80.1519 2.29347 80.5427 2.1281 81.0088 2.1281C81.4448 2.1281 81.8206 2.29347 82.1363 2.62421C82.4671 2.93992 82.6324 3.32329 82.6324 3.7743C82.6324 4.22532 82.4671 4.60869 82.1363 4.9244C81.8206 5.24011 81.4373 5.39797 80.9862 5.39797ZM87.7437 18.5L87.9918 17.3499L92.0284 7.11183H94.6894V7.29224L90.1116 18.5H87.7437ZM87.5633 18.5L82.9855 7.29224V7.11183H85.6465L89.6606 17.3499L89.9086 18.5H87.5633ZM100.636 18.8383C99.4783 18.8383 98.456 18.5827 97.569 18.0715C96.6971 17.5604 96.013 16.8538 95.5169 15.9518C95.0208 15.0497 94.7727 13.9974 94.7727 12.7946C94.7727 11.607 95.0133 10.5621 95.4943 9.66007C95.9905 8.74301 96.667 8.03641 97.5239 7.54029C98.3959 7.02914 99.3956 6.77357 100.523 6.77357C101.651 6.77357 102.628 7.03666 103.455 7.56285C104.297 8.074 104.951 8.79562 105.417 9.72773C105.898 10.6598 106.138 11.7498 106.138 12.9976V13.4261L105.8 13.7643H95.9905V11.5994H104.966L103.59 12.1181C103.575 11.4867 103.425 10.9455 103.139 10.4945C102.868 10.0284 102.508 9.67511 102.057 9.43457C101.621 9.17899 101.125 9.0512 100.568 9.0512C99.9669 9.0512 99.4182 9.19402 98.9221 9.47967C98.426 9.75028 98.0426 10.1336 97.772 10.6298C97.5014 11.1108 97.3661 11.6746 97.3661 12.3211V13.2231C97.3661 13.8395 97.5089 14.4033 97.7945 14.9144C98.0952 15.4105 98.4936 15.8089 98.9897 16.1096C99.4858 16.4103 100.035 16.5606 100.636 16.5606C101.207 16.5606 101.726 16.4103 102.192 16.1096C102.673 15.7939 103.049 15.373 103.319 14.8468H103.59L105.687 15.7488C105.236 16.726 104.567 17.4852 103.68 18.0264C102.808 18.5677 101.794 18.8383 100.636 18.8383Z"
        fill="#F5F3EF" />
</svg>